<?xml version="1.0" standalone="no"?>
<!DOCTYPE svg PUBLIC "-//W3C//DTD SVG 20010904//EN"
 "http://www.w3.org/TR/2001/REC-SVG-20010904/DTD/svg10.dtd">
<svg version="1.0" xmlns="http://www.w3.org/2000/svg"
 width="260.000000pt" height="260.000000pt" viewBox="0 0 260.000000 260.000000"
 preserveAspectRatio="xMidYMid meet">
<metadata>
Created by potrace 1.11, written by Peter Selinger 2001-2013
</metadata>
<g transform="translate(0.000000,260.000000) scale(0.100000,-0.100000)"
fill="#000000" stroke="none">
<path d="M289 1543 c0 -10 -4 -42 -8 -70 l-7 -53 238 0 c220 0 238 1 238 18 0
9 3 41 6 70 l7 52 -237 0 c-218 0 -236 -1 -237 -17z"/>
<path d="M838 1543 c-30 -19 -44 -42 -53 -90 l-7 -33 521 0 c513 0 520 0 526
20 10 33 -4 78 -32 100 -25 19 -40 20 -477 20 -403 -1 -454 -2 -478 -17z"/>
<path d="M1870 1536 c0 -13 -3 -44 -6 -70 l-7 -46 257 0 256 0 0 45 c0 35 -6
52 -25 70 l-24 25 -226 0 -225 0 0 -24z"/>
<path d="M265 1348 c-4 -16 -35 -268 -35 -292 0 -14 24 -16 234 -16 l235 0 6
48 c3 26 8 57 11 70 l4 22 -151 0 -151 0 6 23 c3 12 6 25 6 30 0 4 65 7 145 7
108 0 147 3 149 13 3 6 7 33 10 60 l6 47 -236 0 c-179 0 -236 -3 -239 -12z"/>
<path d="M773 1318 c10 -71 26 -78 188 -78 l139 0 0 -30 0 -30 -175 0 c-160 0
-175 -2 -176 -17 0 -10 -4 -42 -8 -70 l-7 -53 220 0 c201 0 224 2 253 20 17
10 36 28 42 38 16 31 29 163 19 199 -16 58 -40 63 -284 63 l-217 0 6 -42z"/>
<path d="M1320 1343 c-1 -10 -9 -82 -19 -160 l-17 -143 88 0 87 0 6 33 c3 17
8 61 13 97 l7 65 143 5 c136 5 145 6 163 29 10 13 19 38 19 57 l0 34 -245 0
c-226 0 -245 -1 -245 -17z"/>
<path d="M1850 1358 c0 -2 -9 -73 -20 -158 -11 -85 -20 -156 -20 -157 0 -2 41
-3 90 -3 67 0 90 3 90 13 0 15 28 241 35 280 l5 27 -90 0 c-50 0 -90 -1 -90
-2z"/>
<path d="M2167 1218 c-9 -79 -17 -151 -17 -161 0 -16 9 -17 87 -15 l87 3 18
140 c9 77 17 148 17 158 1 15 -10 17 -87 17 l-88 0 -17 -142z"/>
</g>
</svg>
