<svg data-name="Layer 1" xmlns="http://www.w3.org/2000/svg" viewBox="0 0 1000 246.92"><path data-name="svg 1" d="M326.1 0c-37.25 0-61.92 19.59-65.39 49-1.29 10.8-2.5 20.34-2.5 20.34h484.67s.91-7.15 1.62-12.89C748.14 26.82 735.58 0 689.87 0H326.1zM30.31 0L21.8 69.29h219.8L250.08 0zm737.82 0l-8.49 69.28h238.28s.29-2.5 1.34-10.66C1005.06 13.16 975.72 0 947.39 0zm-11.78 95.67l-18.56 151.22h82.2L838.58 95.7h-82.23zm156.18 0l-18.6 151.22h82.21L994.72 95.7h-82.19zM18.6 95.7L0 246.89h219.78l8.1-65.59H90.26l3.48-28.3h137.57l7-57.3H18.6zm236.4 0c-6 39.46 13.73 57.3 41.72 57.3h111.2l-3.47 28.32H244.51l-8.06 65.59s174.13.06 181.19 0c5.83-.42 46.56-1.53 60.43-34.85 4.5-10.82 8.47-49.6 9.59-57.74C494 107 461.3 95.74 435.52 95.74L255 95.7zm255.87 0l-18.59 151.19h82.16L586 153h103.2c29.27 0 45-15.73 47.93-36.86 1.47-10.67 2.53-20.44 2.53-20.44z" fill="#fff"/></svg>